<svg width="115" height="115" viewBox="0 0 115 115" fill="none" xmlns="http://www.w3.org/2000/svg">
<g id="Group 6">
<path id="Vector" d="M97.8358 1.96543C95.0696 4.95001 90.2651 13.3214 90.2651 15.1412C90.2651 17.9074 92.2306 16.8883 96.1615 12.1567C98.1997 9.68165 100.165 7.35223 100.529 6.98825C100.893 6.55149 103.223 7.7162 106.498 9.97283C112.249 14.0493 114.433 14.8501 114.87 13.0302C115.306 10.7008 103.878 -1.66938e-05 100.893 -1.66938e-05C100.238 -1.66938e-05 98.8549 0.873517 97.8358 1.96543Z" fill="black"/>
<path id="Vector_2" d="M52.9217 18.3443C50.1555 21.8385 45.8606 29.1179 45.8606 30.4282C45.8606 30.9378 46.443 31.3018 47.2437 31.3018C48.554 31.3018 51.393 28.5356 55.3967 23.44L57.2893 20.9649L62.6761 25.0414C70.5379 31.0106 74.1049 30.4282 68.6453 24.0951C64.86 19.6546 59.1092 15.287 57.1437 15.287C55.979 15.287 54.5959 16.3061 52.9217 18.3443Z" fill="black"/>
<path id="Vector_3" d="M94.9967 44.8415C92.8129 47.2437 87.3533 56.343 87.3533 57.7261C87.3533 61.0019 89.9739 59.4732 94.7055 53.4313C98.4908 48.6996 98.4908 48.6996 100.02 50.0827C103.004 52.7761 109.337 56.7798 110.72 56.7798C113.268 56.7798 112.176 54.232 107.59 49.7915C99.9467 42.3665 97.9813 41.5658 94.9967 44.8415Z" fill="black"/>
<path id="Vector_4" d="M19.5089 46.0062C17.3251 47.8261 10.9192 58.4541 10.9192 60.4195C10.9192 60.7835 11.5743 61.1475 12.3751 61.1475C13.2486 61.1475 15.2141 59.3276 17.5435 56.5614C19.5817 54.0864 21.4744 51.8298 21.7656 51.5386C22.0567 51.2474 24.6773 52.7761 27.6619 54.9599C33.0487 58.8908 35.1597 59.6916 36.0333 58.2357C36.6884 57.1438 31.884 51.4658 27.5163 47.9717C23.731 45.0599 21.4744 44.4775 19.5089 46.0062Z" fill="black"/>
<path id="Vector_5" d="M54.8142 62.749C52.7759 65.0056 46.5884 75.0513 46.5884 76.1432C46.5884 79.3461 50.1553 77.0167 55.1053 70.538L57.6531 67.1167L62.5304 70.7564C68.9363 75.6336 72.0664 76.7255 72.0664 74.1777C72.0664 73.0858 64.9326 65.6608 61.584 63.2586C58.1627 60.7108 56.7796 60.638 54.8142 62.749Z" fill="black"/>
<path id="Vector_6" d="M95.5792 78.2542C93.541 79.6373 86.6255 90.8476 86.6255 92.5947C86.6255 94.7057 88.7365 94.1234 91.2843 91.1388C92.5946 89.6829 94.6329 87.3535 95.8704 85.9704L97.9814 83.5682L103.732 87.6447C109.192 91.6484 111.303 92.3763 111.885 90.4837C112.468 88.8094 100.311 77.1623 97.9814 77.1623C97.5447 77.1623 96.4527 77.6718 95.5792 78.2542Z" fill="black"/>
<path id="Vector_7" d="M6.33312 89.3189C2.83898 94.1961 0 99.2918 0 100.675C0 103.368 2.83898 101.767 6.91548 96.8895L10.992 91.7939L16.5243 95.7976C19.5817 97.9815 22.6391 99.7285 23.367 99.7285C25.9148 99.7285 24.7501 97.1807 20.2369 92.7403C11.7927 84.5873 10.1184 84.1505 6.33312 89.3189Z" fill="black"/>
<path id="Vector_8" d="M60.565 100.456C57.6533 103.587 52.1937 113.341 52.776 114.287C53.7224 115.889 55.3966 114.87 59.0363 110.429C61.0746 107.954 63.04 105.625 63.404 105.261C63.6952 104.897 66.1702 106.207 68.9364 108.318C79.2004 115.889 81.3115 113.414 72.0666 104.533C68.8636 101.476 65.9518 99.0005 65.5879 99.0005C65.2239 99.0005 64.4231 98.7821 63.768 98.5638C63.04 98.2726 61.8753 99.0005 60.565 100.456Z" fill="black"/>
</g>
</svg>
