<svg width="63" height="54" viewBox="0 0 63 54" fill="none" xmlns="http://www.w3.org/2000/svg">
<g id="Group 6">
<path id="Vector" d="M22.3786 1.75498C13.8276 4.45527 7.07692 10.2416 4.31234 17.1209C2.9622 20.4641 2.83361 21.8143 2.83361 31.7153C2.83361 40.5234 2.64074 43.2237 1.74064 45.7311C1.09771 47.4027 0.583374 49.6529 0.583374 50.6816C0.583374 52.3532 0.776252 52.6104 2.44786 52.6104C3.47654 52.6104 6.11253 52.1603 8.36277 51.5817C12.156 50.6173 12.7347 50.6173 19.1639 51.9032C28.7435 53.7034 34.1441 54.0891 40.3805 53.3176C52.9175 51.7103 60.2469 45.2168 62.3685 33.6441C64.7473 20.7856 55.0392 6.44834 40.6376 1.75498C35.88 0.147667 27.3291 0.147667 22.3786 1.75498ZM41.7306 7.41273C49.6386 11.1417 54.2677 16.2208 56.5179 23.5502C58.0609 28.565 58.1252 30.4938 56.7108 35.5086C55.3606 40.4591 50.7959 45.3453 45.9096 47.0812C40.6376 49.01 30.6723 49.1386 21.2213 47.5313C14.4706 46.374 12.7347 46.2454 9.77721 46.8241C7.84843 47.2741 6.11253 47.467 5.91966 47.2741C5.79107 47.0812 6.04824 46.1168 6.62687 45.0239C7.78414 42.7736 7.91273 39.8162 7.33409 30.4295C6.88404 24.0002 7.01263 22.9715 8.29848 19.564C12.9275 7.41273 29.2579 1.49781 41.7306 7.41273Z" fill="black"/>
<path id="Vector 298" d="M21.9921 35.5391C22.946 36.9058 25.8208 39.4522 29.6886 38.7038C34.5233 37.7683 43.8682 33.6851 39.9004 29.7473C35.9325 25.8095 35.5862 9.5882 31.1146 14.5384C26.6429 19.4886 15.3334 22.5041 19.9589 24.7634C24.5845 27.0227 23.3845 35.7868 21.9921 35.5391Z" fill="#C5E1A5"/>
<path id="Vector_2" d="M31.7653 14.6778C31.1224 15.3851 30.0937 17.4424 29.5151 19.3069C28.7436 21.5571 28.1007 22.6501 27.522 22.4572C27.0077 22.3287 24.7575 22.0715 22.4429 21.9429C17.1709 21.6214 15.1136 22.5858 14.8564 25.4147C14.4064 30.0438 21.0928 34.5442 30.0937 35.8301C36.3944 36.6659 37.5517 36.1516 39.6733 31.5868C43.338 23.4859 40.7663 13.392 34.98 13.392C33.7584 13.392 32.4726 13.9063 31.7653 14.6778ZM36.523 18.1496C38.066 20.0141 38.1303 24.7075 36.523 29.208L35.0443 33.4513L32.344 33.0655C28.0364 32.4869 22.7001 30.1723 20.5141 27.9864L18.5211 25.929L20.9642 25.7362C22.3143 25.6076 25.0789 25.9933 27.2006 26.6363C30.7367 27.7292 30.9938 27.7292 31.7653 26.7005C32.2154 26.0576 32.7297 24.1288 32.9869 22.3929C33.2441 20.5928 33.5655 18.7283 33.7584 18.2139C34.2728 16.9924 35.5586 16.9924 36.523 18.1496Z" fill="black"/>
</g>
</svg>
