<svg width="110" height="110" viewBox="0 0 110 110" fill="none" xmlns="http://www.w3.org/2000/svg">
<g id="Group 8">
<path id="Vector 297" d="M21.7175 32.88C19.8638 39.8933 17.9359 56.7253 25.0541 67.9467C33.9519 81.9733 44.518 94.4971 49.523 93.4952C54.5279 92.4933 56.1963 96 73.4357 96C90.6751 96 97.3484 76.9638 90.119 72.4552C82.8895 67.9467 52.3035 63.939 67.8746 57.4267C83.4456 50.9143 78.4407 28.8724 61.2013 28.3714C43.9619 27.8705 38.9568 16.3485 21.7175 32.88Z" fill="#FCEEB5"/>
<path id="Highlight 24" d="M47.4687 47.7072C43.3237 47.7072 50.3914 -3.30671 32.7187 2.45352C15.916 7.93017 39.4108 47.7072 35.4628 47.7072C31.5148 47.7072 3.92116 45.4168 2.08412 57.8893C0.032477 71.8188 36.1802 64.0219 37.2572 65.8087C38.3341 67.5954 23.0643 88.7513 32.7187 95.2236C42.7205 101.929 55.4918 77.1221 57.6802 77.1221C59.8686 77.1221 71.1792 117.761 80.3725 106.537C87.8439 97.4154 70.0336 77.1221 73.5648 77.1221C77.096 77.1221 103.441 79.1837 107.603 65.8087C112.691 49.4628 67.2262 61.1351 64.4879 57.8893C61.7496 54.6435 86.4024 28.5892 73.5648 21.6863C60.8893 14.8707 51.6137 47.7072 47.4687 47.7072Z" stroke="black" stroke-width="2.87127" stroke-linecap="round"/>
</g>
</svg>
