<svg width="161" height="55" viewBox="0 0 161 55" fill="none" xmlns="http://www.w3.org/2000/svg">
<g id="Logo Empati">
<path id="Vector" d="M142.535 7.32595C140.953 7.73479 140.755 10.9659 142.1 14.2102C142.575 15.3444 143.96 17.2303 144.817 17.8897C145.806 18.6678 146.07 18.6019 148.246 17.1644C151.648 14.9092 153.442 12.6276 153.666 10.2669C153.97 6.93031 150.818 7.2732 148.14 10.8736C147.771 11.3747 147.441 11.7704 147.415 11.744C147.389 11.7176 147.112 11.1637 146.795 10.5175C145.674 8.22275 143.973 6.95668 142.535 7.32595ZM143.854 9.01404C144.747 9.7666 144.869 10.2669 145.555 11.744C146.795 13.2952 146.729 13.0233 146.861 13.1683C147.772 13.8659 148.906 12.3535 150.418 10.8411C151.553 9.32868 151.434 9.32507 152.035 9.53113C152.687 10.0849 152.14 10.645 151.931 11.2192C150.933 13.137 150.554 14.1838 147.336 16.3731L146.122 16.9533L144.817 15.9589C142.997 13.9147 142.285 11.7072 142.535 9.53113C142.694 8.19913 143.401 8.63229 143.854 9.01404Z" fill="#FFFBF2"/>
<path id="Vector_2" d="M152.922 0.684628C152.589 0.818033 151.855 2.05202 151.855 2.48559C151.855 2.78575 151.605 2.85245 151.004 2.6857C150.304 2.48559 149.42 2.73572 149.17 3.21931C148.67 4.15315 149.854 5.97078 151.521 6.82124C152.122 7.10472 152.872 7.37153 153.189 7.40488L153.773 7.43823L154.139 5.6873C154.34 4.72012 154.506 3.51947 154.523 3.01921C154.523 1.53508 153.723 0.367793 152.922 0.684628ZM153.439 2.03535C153.789 2.60232 153.222 6.52108 152.789 6.52108C152.105 6.52108 150.187 4.57004 150.187 3.85299C150.187 3.60285 150.771 3.65288 151.438 3.96971C152.255 4.36993 152.539 4.15315 152.822 2.8858C153.039 1.88527 153.206 1.65181 153.439 2.03535Z" fill="#FFFBF2"/>
<path id="Vector_3" d="M156.806 0.834705C156.496 1.08846 156.468 1.20124 156.468 2.49821C156.468 3.6683 156.524 3.97844 156.792 4.48595C156.976 4.82429 157.201 5.12034 157.314 5.16263C157.427 5.20492 157.892 5.04985 158.343 4.7961C160.133 3.85157 161.289 1.93431 160.514 1.22943C160.147 0.905192 159.668 0.933387 158.977 1.34221C158.639 1.52548 158.371 1.63826 158.371 1.58187C158.371 1.37041 157.723 0.721925 157.441 0.651438C157.257 0.595047 157.018 0.665535 156.806 0.834705ZM157.525 2.18806C157.525 2.99162 158.075 3.24537 158.583 2.68148C158.921 2.31494 159.767 1.77924 159.866 1.87792C160.119 2.13167 158.794 3.59781 157.892 4.09122C157.554 4.26039 157.497 4.26039 157.37 4.09122C157.159 3.73879 157.06 2.99162 157.173 2.32904C157.257 1.68055 157.525 1.58187 157.525 2.18806Z" fill="#FFFBF2"/>
<g id="Empati">
<path d="M0 45.4511V12.6317H21.0982V18.2579H6.18879V26.0876H19.7854V31.7138H6.18879V39.8249H21.3795V45.4511H0Z" fill="#FFFBF2"/>
<path d="M26.1482 45.4511V22.1962H31.9619V24.728H32.8058C33.2121 23.9466 33.8841 23.2746 34.8218 22.7119C35.7595 22.1181 36.9942 21.8211 38.5257 21.8211C40.1823 21.8211 41.5107 22.1493 42.5109 22.8057C43.5112 23.4308 44.2769 24.2591 44.8083 25.2906H45.6522C46.1836 24.2904 46.9337 23.4621 47.9027 22.8057C48.8717 22.1493 50.2469 21.8211 52.0286 21.8211C53.4664 21.8211 54.7635 22.1337 55.92 22.7588C57.1077 23.3527 58.0454 24.2748 58.7331 25.525C59.452 26.744 59.8114 28.2912 59.8114 30.1666V45.4511H53.904V30.5886C53.904 29.3071 53.5758 28.3537 52.9194 27.7286C52.263 27.0722 51.3409 26.744 50.1532 26.744C48.8091 26.744 47.762 27.1816 47.0119 28.0568C46.293 28.9007 45.9335 30.1197 45.9335 31.7138V45.4511H40.0261V30.5886C40.0261 29.3071 39.6979 28.3537 39.0415 27.7286C38.3851 27.0722 37.463 26.744 36.2753 26.744C34.9312 26.744 33.8841 27.1816 33.134 28.0568C32.4151 28.9007 32.0556 30.1197 32.0556 31.7138V45.4511H26.1482Z" fill="#FFFBF2"/>
<path d="M66.1651 54.828V22.1962H71.9788V25.0093H72.8227C73.3541 24.1029 74.1824 23.3058 75.3076 22.6182C76.4328 21.8993 78.0425 21.5398 80.1367 21.5398C82.0121 21.5398 83.7468 22.0087 85.3409 22.9464C86.935 23.8528 88.2165 25.1968 89.1855 26.9785C90.1544 28.7601 90.6389 30.9168 90.6389 33.4486V34.1987C90.6389 36.7305 90.1544 38.8872 89.1855 40.6688C88.2165 42.4504 86.935 43.8101 85.3409 44.7478C83.7468 45.6542 82.0121 46.1074 80.1367 46.1074C78.7302 46.1074 77.5424 45.9355 76.5735 45.5917C75.6358 45.2792 74.87 44.8728 74.2761 44.3727C73.7135 43.8414 73.2603 43.31 72.9165 42.7786H72.0725V54.828H66.1651ZM78.3551 40.9501C80.1992 40.9501 81.7152 40.3719 82.9029 39.2154C84.1219 38.0276 84.7314 36.3085 84.7314 34.0581V33.5892C84.7314 31.3387 84.1219 29.6353 82.9029 28.4788C81.6839 27.291 80.168 26.6972 78.3551 26.6972C76.5422 26.6972 75.0263 27.291 73.8073 28.4788C72.5883 29.6353 71.9788 31.3387 71.9788 33.5892V34.0581C71.9788 36.3085 72.5883 38.0276 73.8073 39.2154C75.0263 40.3719 76.5422 40.9501 78.3551 40.9501Z" fill="#FFFBF2"/>
<path d="M103.284 46.1074C101.627 46.1074 100.142 45.8261 98.8295 45.2635C97.5167 44.6697 96.4696 43.8257 95.6882 42.7317C94.938 41.6065 94.563 40.2469 94.563 38.6528C94.563 37.0587 94.938 35.7303 95.6882 34.6676C96.4696 33.5736 97.5323 32.7609 98.8764 32.2296C100.252 31.6669 101.814 31.3856 103.565 31.3856H109.941V30.0729C109.941 28.9789 109.597 28.0881 108.91 27.4004C108.222 26.6815 107.128 26.3221 105.628 26.3221C104.159 26.3221 103.065 26.6659 102.346 27.3535C101.627 28.0099 101.158 28.8695 100.939 29.9322L95.5006 28.1037C95.8757 26.9159 96.4696 25.8376 97.2823 24.8686C98.1262 23.8684 99.2358 23.0714 100.611 22.4775C102.018 21.8524 103.721 21.5398 105.722 21.5398C108.785 21.5398 111.207 22.3056 112.989 23.8372C114.77 25.3687 115.661 27.588 115.661 30.4948V39.1685C115.661 40.1062 116.099 40.575 116.974 40.575H118.849V45.4511H114.911C113.754 45.4511 112.801 45.1698 112.051 44.6071C111.301 44.0445 110.926 43.2944 110.926 42.3567V42.3098H110.035C109.91 42.6849 109.629 43.185 109.191 43.8101C108.753 44.404 108.066 44.9353 107.128 45.4042C106.19 45.873 104.909 46.1074 103.284 46.1074ZM104.315 41.3252C105.972 41.3252 107.316 40.872 108.347 39.9655C109.41 39.0278 109.941 37.7932 109.941 36.2616V35.7928H103.987C102.893 35.7928 102.033 36.0272 101.408 36.4961C100.783 36.9649 100.47 37.6213 100.47 38.4652C100.47 39.3092 100.799 39.9968 101.455 40.5282C102.111 41.0595 103.065 41.3252 104.315 41.3252Z" fill="#FFFBF2"/>
<path d="M130.383 45.4511C128.851 45.4511 127.601 44.9822 126.632 44.0445C125.694 43.0756 125.225 41.794 125.225 40.2V27.0722H119.412V22.1962H125.225V14.976H131.133V22.1962H137.509V27.0722H131.133V39.1685C131.133 40.1062 131.57 40.575 132.445 40.575H136.946V45.4511H130.383Z" fill="#FFFBF2"/>
<path d="M142.856 45.4511V22.1962H148.764V45.4511H142.856Z" fill="#FFFBF2"/>
</g>
</g>
</svg>
